<svg xmlns="http://www.w3.org/2000/svg" viewBox="0 0 120 120" fill="none">
  <!-- Body -->
  <ellipse cx="60" cy="68" rx="28" ry="22" fill="#1a2744"/>
  <!-- Chest white patch -->
  <ellipse cx="60" cy="72" rx="14" ry="14" fill="#f0f4ff"/>
  <!-- Left wing -->
  <path d="M32 58 Q10 40 18 22 Q36 50 40 62 Z" fill="#1a2744"/>
  <path d="M32 58 Q12 44 22 28 Q38 52 42 64 Z" fill="#243055"/>
  <!-- Right wing -->
  <path d="M88 58 Q110 40 102 22 Q84 50 80 62 Z" fill="#1a2744"/>
  <path d="M88 58 Q108 44 98 28 Q82 52 78 64 Z" fill="#243055"/>
  <!-- Head -->
  <circle cx="60" cy="44" r="20" fill="#1a2744"/>
  <!-- White head patch -->
  <ellipse cx="60" cy="42" rx="11" ry="13" fill="#f0f4ff"/>
  <!-- Left eye -->
  <circle cx="54" cy="40" r="4.5" fill="#1CB0F6"/>
  <circle cx="54" cy="40" r="2.5" fill="#0a1628"/>
  <circle cx="55.2" cy="38.8" r="1" fill="white"/>
  <!-- Right eye -->
  <circle cx="66" cy="40" r="4.5" fill="#1CB0F6"/>
  <circle cx="66" cy="40" r="2.5" fill="#0a1628"/>
  <circle cx="67.2" cy="38.8" r="1" fill="white"/>
  <!-- Beak -->
  <path d="M57 50 L60 56 L63 50 Q60 48 57 50Z" fill="#FFB700"/>
  <!-- Coin in talon -->
  <circle cx="60" cy="92" r="10" fill="#FFD700" stroke="#E8A000" stroke-width="1.5"/>
  <text x="60" y="96.5" text-anchor="middle" font-family="Arial Black, sans-serif" font-weight="900" font-size="10" fill="#0a1628">₸</text>
  <!-- Feet/talons -->
  <path d="M48 80 Q44 88 42 92" stroke="#1a2744" stroke-width="3" stroke-linecap="round"/>
  <path d="M50 82 Q48 90 46 93" stroke="#1a2744" stroke-width="3" stroke-linecap="round"/>
  <path d="M72 80 Q76 88 78 92" stroke="#1a2744" stroke-width="3" stroke-linecap="round"/>
  <path d="M70 82 Q72 90 74 93" stroke="#1a2744" stroke-width="3" stroke-linecap="round"/>
</svg>
